<svg xmlns="http://www.w3.org/2000/svg" width="36" height="36" viewBox="0 0 36 36">
  <path id="account-icon" d="M20,2A18,18,0,1,0,38,20,18.007,18.007,0,0,0,20,2ZM11.126,31.3c.774-1.62,5.49-3.2,8.874-3.2s8.118,1.584,8.874,3.2a14.266,14.266,0,0,1-17.748,0Zm20.322-2.61C28.874,25.562,22.628,24.5,20,24.5s-8.874,1.062-11.448,4.194a14.4,14.4,0,1,1,22.9,0ZM20,9.2a6.3,6.3,0,1,0,6.3,6.3A6.284,6.284,0,0,0,20,9.2Zm0,9a2.7,2.7,0,1,1,2.7-2.7A2.7,2.7,0,0,1,20,18.2Z" transform="translate(-2 -2)" fill="#7a599b"/>
</svg>
